<?xml version="1.0" encoding="UTF-8"?>
<svg xmlns="http://www.w3.org/2000/svg"
     version="1.1"
     viewBox="0 0 400 400">
  <defs>
    <style>
      .cls-1 {
        fill: #000;
        stroke-width: 0;
      }
    </style>
  </defs>

  <path class="cls-1" d="
    M210 112
    L236 113
    Q252 116 265 122
    Q263 126 268 125
    Q292 137 309 157
    L313 162V165
    L300 177
    Q295 182 295 191
    L291 190H267
    L260 184
    Q256 168 246 158
    L241 155
    Q242 151 240 152
    Q249 167 257 187
    L263 207
    L265 229
    L249 223H232
    L210 218H204
    L198 220H192
    Q186 216 176 217
    Q173 220 167 219
    Q161 215 150 216
    Q146 219 138 218
    Q132 215 123 216
    L120 218H111L110 219H100L99 218H79
    L68 223H57
    L60 217
    L74 200
    Q77 201 76 199
    Q85 183 99 172
    L134 144
    L154 131
    L174 121
    L196 114
    Z

    M338 160
    L354 162
    Q361 161 363 165
    V168H370
    L376 173
    L383 181
    L387 191
    V207
    L384 223
    L380 229
    L374 233
    L370 239
    L349 247H336
    L330 244
    Q322 245 319 242
    L317 236
    Q309 234 310 228
    L304 226
    L300 216
    V197
    L302 186
    Q309 182 308 179
    L315 170
    L319 169
    L321 166H324
    Q323 163 326 164
    Q327 162 332 163
    Z

    M151 222
    L160 223
    L170 227V224
    Q174 222 183 223
    L191 227
    L207 225
    L216 228H220
    Q231 227 235 232
    Q239 229 248 230
    L256 235
    Q264 235 268 238
    L272 246
    Q276 246 278 250
    L280 259V273
    Q277 287 267 293
    L263 295
    Q257 294 256 296
    H241
    L229 297
    Q219 298 213 297
    L205 293
    L193 296
    L180 294
    Q176 297 168 296
    L161 293
    L148 295
    L141 295
    Q129 296 117 294
    L106 295
    Q104 292 98 293
    Q93 296 85 295
    L82 293
    H66
    L65 294H47
    Q39 291 31 292
    L25 288
    L20 278
    L19 273
    V259
    L20 254
    Q24 256 23 252
    Q25 245 30 241
    L36 238
    Q35 235 38 236
    Q39 234 45 235
    Q48 230 56 230
    L60 231
    L71 227
    H95
    L104 224H111
    Q112 227 118 226
    L121 224
    L133 223
    L139 226H144
    L146 223
    Z
  "/>
</svg>
